<?xml version="1.0" standalone="no"?>
<!DOCTYPE svg PUBLIC "-//W3C//DTD SVG 20010904//EN"
 "http://www.w3.org/TR/2001/REC-SVG-20010904/DTD/svg10.dtd">
<svg version="1.0" xmlns="http://www.w3.org/2000/svg"
 width="512.000000pt" height="512.000000pt" viewBox="0 0 512.000000 512.000000"
 preserveAspectRatio="xMidYMid meet">

<rect x="0" y="0" width="100%" height="100%" fill="#F97316"/>

<g transform="translate(0.000000,512.000000) scale(0.100000,-0.100000)"
fill="#FFFFFF" stroke="none">
<path d="M2315 3476 c-43 -20 -71 -43 -63 -52 5 -4 16 1 27 10 27 25 110 48
146 40 16 -3 49 -17 73 -30 49 -29 57 -16 10 18 -40 28 -146 36 -193 14z"/>
<path d="M2332 3420 c-24 -11 -41 -24 -37 -29 3 -6 19 -2 38 9 41 25 83 25
130 0 41 -22 51 -10 12 16 -39 25 -94 27 -143 4z"/>
<path d="M3890 3395 c-25 -13 -41 -24 -37 -25 5 0 17 5 27 10 13 7 21 7 25 0
4 -6 12 -7 18 -4 7 4 9 4 5 0 -9 -11 12 -67 23 -60 5 3 9 -5 9 -16 0 -19 -4
-21 -27 -16 -25 5 -26 4 -7 -5 17 -8 31 -7 65 8 l44 19 -48 13 c-35 10 -47 19
-47 32 0 23 5 23 60 4 49 -17 77 -19 40 -3 -14 6 -27 12 -30 13 -11 3 -74 45
-68 45 15 0 58 -24 58 -32 0 -5 4 -7 9 -4 5 3 28 -3 51 -13 33 -15 38 -20 24
-24 -13 -3 -11 -5 9 -6 15 0 27 3 27 7 0 7 -167 83 -180 82 -3 -1 -25 -12 -50
-25z"/>
<path d="M2126 3378 c4 -7 3 -8 -4 -4 -7 4 -38 -11 -71 -34 -33 -22 -62 -40
-65 -40 -4 0 -6 19 -6 41 l0 41 -26 -17 c-15 -9 -24 -13 -20 -7 3 5 -1 12 -9
16 -12 4 -15 -6 -15 -62 l0 -67 -58 -37 -57 -38 85 0 85 0 84 56 83 56 83 -56
82 -56 84 0 84 0 -165 110 c-159 106 -189 123 -174 98z m-156 -28 c0 -5 -2
-10 -4 -10 -3 0 -8 5 -11 10 -3 6 -1 10 4 10 6 0 11 -4 11 -10z"/>
<path d="M2352 3368 c-7 -7 -12 -16 -12 -22 0 -6 5 -5 12 2 15 15 63 16 89 2
12 -7 19 -7 19 -1 0 27 -85 42 -108 19z"/>
<path d="M3790 3350 c-13 -9 -13 -11 0 -20 8 -5 20 -10 25 -10 6 0 3 5 -5 10
-13 9 -13 11 0 20 8 5 11 10 5 10 -5 0 -17 -5 -25 -10z"/>
<path d="M2381 3316 c-16 -19 -6 -36 20 -36 15 0 20 6 17 22 -4 27 -21 33 -37
14z"/>
<path d="M3840 3312 c8 -5 26 -13 40 -16 17 -5 20 -4 10 2 -8 5 -26 13 -40 16
-17 5 -20 4 -10 -2z"/>
<path d="M4080 3244 c0 -38 -3 -79 -6 -91 -5 -17 -2 -23 10 -23 13 0 15 12 10
88 -8 107 -14 119 -14 26z"/>
<path d="M3850 3254 c0 -32 39 -56 92 -56 68 0 98 16 98 51 l0 30 -45 -17
c-41 -15 -48 -15 -95 0 l-50 16 0 -24z"/>
<path d="M2050 3115 c0 -33 2 -35 35 -35 33 0 35 2 35 35 0 33 -2 35 -35 35
-33 0 -35 -2 -35 -35z"/>
<path d="M2150 3115 c0 -32 2 -35 30 -35 28 0 30 3 30 35 0 32 -2 35 -30 35
-28 0 -30 -3 -30 -35z m50 -15 c0 -5 -2 -10 -4 -10 -3 0 -8 5 -11 10 -3 6 -1
10 4 10 6 0 11 -4 11 -10z"/>
<path d="M875 3090 c-29 -11 -48 -37 -39 -51 4 -7 3 -9 -3 -6 -18 11 -23 -49
-23 -284 l0 -229 65 0 65 0 2 205 3 206 78 -101 c43 -55 81 -100 83 -100 3 0
2 5 -2 12 -4 7 -3 8 5 4 6 -4 9 -12 6 -17 -10 -16 127 -187 164 -205 67 -32
128 12 132 96 1 25 1 141 0 258 l-1 212 -49 0 c-43 0 -49 -2 -44 -19 3 -10 -1
-22 -8 -26 -7 -5 -10 -4 -7 1 3 5 2 18 -3 29 -4 11 -8 -67 -8 -177 -1 -109 -4
-198 -8 -198 -5 1 -35 37 -67 80 -33 44 -64 76 -69 73 -6 -3 -7 -1 -4 4 6 10
-131 193 -166 222 -9 7 -24 11 -32 7 -9 -3 -13 -2 -10 4 7 12 -32 12 -60 0z
m130 -58 c-3 -3 -11 0 -18 7 -9 10 -8 11 6 5 10 -3 15 -9 12 -12z m393 -32
c-2 -21 -6 -26 -21 -22 -17 4 -17 6 -3 14 9 5 16 14 16 21 0 9 -2 9 -8 0 -6
-10 -12 -9 -28 3 -16 13 -16 15 -1 10 9 -3 17 -1 17 4 0 5 7 7 15 4 9 -4 14
-17 13 -34z m-351 -15 c15 -19 28 -38 29 -42 2 -22 17 -42 35 -46 12 -3 19
-14 19 -28 0 -21 -2 -20 -30 9 -16 17 -32 43 -36 57 -3 14 -10 25 -15 25 -5 0
-9 6 -9 14 0 7 -10 21 -22 29 -13 9 -18 16 -11 16 7 1 25 -15 40 -34z m353
-41 c0 -8 -5 -12 -10 -9 -6 4 -8 11 -5 16 9 14 15 11 15 -7z m-3 -56 c-3 -7
-5 -2 -5 12 0 14 2 19 5 13 2 -7 2 -19 0 -25z m-214 -76 c26 -23 21 -33 -10
-19 -30 12 -53 31 -53 42 0 10 43 -6 63 -23z m-25 -28 l23 -16 -21 -15 c-17
-12 -19 -18 -9 -29 10 -12 9 -13 -5 -8 -9 3 -16 14 -16 23 0 9 -10 22 -22 27
-13 6 -17 9 -10 7 7 -1 15 4 18 12 8 19 14 19 42 -1z m97 -84 c-8 -13 -35 -13
-35 1 0 6 7 9 15 5 8 -3 15 -1 15 4 0 6 -10 10 -22 10 -18 0 -20 2 -8 10 12 8
12 10 -3 16 -9 3 -14 10 -11 15 3 5 17 -4 30 -21 14 -16 23 -34 19 -40z m-78
-12 c-3 -8 -6 -5 -6 6 -1 11 2 17 5 13 3 -3 4 -12 1 -19z m18 -27 c3 -5 2 -12
-3 -15 -5 -3 -9 1 -9 9 0 17 3 19 12 6z"/>
<path d="M1136 2765 c4 -8 8 -15 10 -15 2 0 4 7 4 15 0 8 -4 15 -10 15 -5 0
-7 -7 -4 -15z"/>
<path d="M2390 3092 l-66 -3 -92 -209 c-57 -129 -90 -215 -86 -227 4 -13 3
-14 -4 -5 -5 8 -13 13 -17 12 -4 -1 -37 66 -73 149 -36 83 -68 149 -71 147 -3
-2 -7 6 -8 17 0 12 -11 43 -23 70 l-21 47 -70 0 c-63 0 -69 -2 -61 -17 6 -10
58 -126 117 -258 109 -243 130 -279 175 -297 29 -11 93 -2 85 12 -3 6 0 7 8 4
9 -3 22 7 35 28 24 40 246 528 241 531 -2 1 -33 1 -69 -1z"/>
<path d="M2735 3091 c-11 -5 -27 -17 -36 -27 -14 -16 -259 -527 -259 -540 0
-2 30 -4 68 -4 l67 0 17 41 c9 22 15 48 12 57 -4 11 -3 13 3 5 6 -8 34 42 82
147 40 87 78 166 85 175 10 15 20 2 64 -90 29 -59 52 -111 52 -116 0 -5 -36
-9 -80 -9 l-80 0 27 -55 27 -55 83 0 82 0 22 -50 21 -50 69 0 c38 0 69 2 69 5
0 17 -35 73 -43 68 -6 -3 -7 -1 -4 4 6 10 -174 405 -209 458 -26 39 -89 56
-139 36z m269 -317 c3 -8 2 -12 -4 -9 -6 3 -10 10 -10 16 0 14 7 11 14 -7z"/>
<path d="M1560 2805 l0 -285 60 0 60 0 0 285 0 285 -60 0 -60 0 0 -285z"/>
<path d="M3272 3073 c-56 -28 -77 -68 -77 -150 0 -77 13 -106 69 -147 24 -19
46 -22 188 -26 143 -4 161 -7 174 -24 19 -27 18 -50 -6 -71 -17 -16 -42 -18
-220 -18 l-200 0 0 -59 0 -59 229 3 c214 3 232 4 257 24 49 36 67 70 72 133 4
49 0 67 -19 101 -40 70 -78 84 -251 88 -130 3 -149 6 -164 23 -23 26 -9 70 26
80 14 4 98 7 188 8 161 1 162 1 161 24 -1 25 -17 69 -18 48 -1 -11 -14 -12
-66 -7 -73 7 -95 14 -95 28 0 5 36 8 89 6 49 -2 87 0 84 5 -2 4 -91 7 -196 7
-156 0 -198 -3 -225 -17z m118 -3 c8 -5 11 -10 5 -11 -5 0 -20 -2 -32 -3 -12
-2 -19 2 -16 7 4 6 -3 8 -15 5 -12 -4 -22 -2 -22 3 0 12 61 11 80 -1z m207
-46 c-3 -3 -12 -4 -19 -1 -8 3 -5 6 6 6 11 1 17 -2 13 -5z m-380 -91 c-3 -10
-5 -4 -5 12 0 17 2 24 5 18 2 -7 2 -21 0 -30z m508 -147 c9 -13 18 -43 20 -66
4 -40 3 -42 -21 -36 -20 5 -24 3 -25 -16 -1 -13 -1 -26 0 -30 0 -5 -5 -8 -13
-8 -8 0 -13 6 -12 13 0 6 -3 13 -9 14 -5 0 -9 -3 -7 -8 1 -5 -5 -9 -13 -9 -13
0 -13 4 2 26 9 15 19 22 21 15 7 -22 24 -11 20 14 -3 13 -1 23 5 22 15 -3 34
52 22 61 -11 7 -18 32 -10 32 2 0 12 -11 20 -24z m0 -127 c-4 -5 2 -9 12 -9
11 0 14 -3 7 -8 -7 -4 -14 -18 -15 -32 -2 -14 -11 -25 -19 -25 -8 -1 -14 -6
-12 -13 1 -9 -3 -9 -18 0 -23 15 -27 33 -6 25 9 -4 17 2 21 14 4 10 10 19 14
19 5 0 7 11 6 25 -2 14 1 23 6 19 5 -3 7 -10 4 -15z m-55 -110 c0 -6 -7 -9
-15 -5 -8 3 -15 1 -15 -4 0 -6 -5 -10 -11 -10 -8 0 -8 5 1 15 15 17 40 20 40
4z"/>
<path d="M3723 2725 c0 -8 4 -12 9 -9 5 3 6 10 3 15 -9 13 -12 11 -12 -6z"/>
<path d="M3719 3058 c0 -18 -2 -43 -3 -55 -2 -13 1 -23 6 -23 4 0 8 25 8 55 0
58 -9 78 -11 23z"/>
<path d="M3890 2805 l0 -285 60 0 60 0 0 285 0 285 -60 0 -60 0 0 -285z m100
265 c0 -5 -2 -10 -4 -10 -3 0 -8 5 -11 10 -3 6 -1 10 4 10 6 0 11 -4 11 -10z
m-3 -302 c-2 -24 -4 -7 -4 37 0 44 2 63 4 43 2 -21 2 -57 0 -80z m-20 30 c-3
-8 -6 -5 -6 6 -1 11 2 17 5 13 3 -3 4 -12 1 -19z m28 -88 c3 -5 1 -10 -4 -10
-6 0 -11 5 -11 10 0 6 2 10 4 10 3 0 8 -4 11 -10z"/>
<path d="M2050 3015 c0 -33 2 -35 35 -35 33 0 35 2 35 35 0 33 -2 35 -35 35
-33 0 -35 -2 -35 -35z"/>
<path d="M2150 3015 c0 -33 2 -35 33 -35 30 0 32 2 32 35 0 33 -2 35 -32 35
-31 0 -33 -2 -33 -35z"/>
<path d="M2370 2413 c-375 -22 -819 -122 -1138 -256 -58 -24 -70 -32 -57 -40
9 -5 19 -6 22 -3 4 3 0 6 -8 6 -11 0 -11 2 1 10 20 13 33 13 25 0 -3 -5 -1
-10 4 -10 6 0 11 7 11 15 0 8 5 15 11 15 5 0 7 -4 4 -10 -8 -13 7 -13 42 1 15
6 103 30 195 54 92 23 164 46 160 50 -4 5 -1 5 6 1 7 -4 79 4 160 18 296 51
421 60 807 61 285 0 390 -4 505 -18 283 -35 506 -78 725 -142 66 -18 121 -32
124 -30 2 2 -24 12 -57 21 -34 9 -59 21 -56 25 2 4 -5 6 -16 4 -11 -2 -18 0
-15 5 6 9 37 7 73 -4 12 -4 22 -5 22 -2 0 3 -76 30 -168 60 -424 138 -909 197
-1382 169z m-730 -143 c-24 -24 -30 -25 -30 -6 0 13 13 20 43 25 4 0 -2 -8
-13 -19z m2007 -7 c-4 -3 -3 -11 3 -17 6 -8 3 -12 -11 -13 -11 -1 -17 2 -14 8
4 5 0 9 -7 9 -9 0 -9 3 2 10 17 11 37 13 27 3z m-2283 -77 c-3 -8 -12 -12 -20
-9 -8 3 -14 0 -14 -7 0 -7 -7 -10 -15 -6 -8 3 -15 1 -15 -4 0 -6 -8 -10 -17
-10 -32 0 12 26 84 49 1 1 0 -5 -3 -13z"/>
<path d="M3940 2170 c8 -5 20 -10 25 -10 6 0 3 5 -5 10 -8 5 -19 10 -25 10 -5
0 -3 -5 5 -10z"/>
<path d="M3990 2150 c8 -5 20 -10 25 -10 6 0 3 5 -5 10 -8 5 -19 10 -25 10 -5
0 -3 -5 5 -10z"/>
<path d="M1146 2108 c5 -8 1 -9 -12 -4 -14 5 -16 4 -7 -4 7 -8 17 -9 28 -3 16
9 16 10 1 16 -12 5 -15 3 -10 -5z"/>
<path d="M1770 2097 c-42 -14 -72 -67 -63 -110 7 -34 50 -63 105 -71 21 -3 56
-9 78 -12 39 -6 70 -26 70 -45 0 -5 -9 -18 -20 -29 -27 -27 -130 -28 -182 -1
-36 18 -38 18 -53 1 -16 -17 -15 -19 7 -34 61 -39 201 -46 254 -11 50 32 55
111 9 141 -13 8 -63 22 -112 30 -59 9 -92 19 -100 31 -17 23 -16 30 7 53 15
15 33 20 69 20 52 0 111 -16 111 -31 0 -13 38 -11 46 3 10 16 -38 55 -84 67
-48 14 -98 13 -142 -2z m169 -25 c19 -9 37 -23 39 -30 2 -7 -12 -3 -35 10 -29
18 -53 23 -100 22 -72 -1 -103 -20 -103 -65 0 -38 28 -54 119 -67 87 -13 125
-36 129 -79 2 -24 -4 -36 -29 -58 -31 -25 -38 -27 -114 -23 -57 2 -89 8 -109
21 -37 25 -28 31 15 10 47 -24 155 -24 192 0 30 20 37 66 13 86 -8 7 -54 19
-103 26 -72 12 -92 19 -110 40 -36 41 -27 85 22 113 31 18 135 15 174 -6z"/>
<path d="M2933 2099 c-17 -5 -45 -23 -62 -40 -81 -80 -60 -226 39 -277 79 -41
196 -16 231 50 19 35 2 31 -34 -8 -32 -35 -39 -38 -98 -41 -51 -3 -70 0 -97
16 -68 43 -92 136 -54 211 48 97 194 110 261 24 26 -33 39 -25 16 10 -35 53
-125 77 -202 55z"/>
<path d="M4080 2099 c-12 -8 -10 -9 9 -4 16 5 21 4 17 -4 -5 -7 -1 -9 8 -5 9
3 16 1 16 -6 0 -6 4 -9 9 -6 5 4 11 2 13 -3 1 -4 14 -11 28 -15 14 -4 3 6 -25
23 -57 35 -55 34 -75 20z"/>
<path d="M1100 2090 c0 -5 5 -10 11 -10 5 0 7 5 4 10 -3 6 -8 10 -11 10 -2 0
-4 -4 -4 -10z"/>
<path d="M2090 1935 l0 -165 25 0 c23 0 25 3 25 50 l0 50 90 0 c137 0 170 23
170 120 0 44 -5 56 -29 81 -29 29 -30 29 -155 29 l-126 0 0 -165z m249 140
c57 -29 65 -119 15 -166 -23 -21 -36 -24 -125 -27 l-99 -4 0 -49 c0 -27 -4
-49 -10 -49 -6 0 -10 58 -10 155 l0 155 100 0 c69 0 110 -5 129 -15z"/>
<path d="M2123 1985 l2 -85 98 0 c91 0 100 2 122 25 34 33 34 87 0 120 -22 23
-31 25 -124 25 l-100 0 2 -85z m216 49 c18 -17 18 -82 -1 -99 -14 -14 -58 -19
-145 -16 l-53 1 0 68 0 67 92 -3 c62 -3 98 -8 107 -18z"/>
<path d="M2505 1953 c-38 -82 -72 -156 -77 -165 -7 -15 -4 -18 17 -18 24 0 32
13 91 136 38 80 69 133 74 128 5 -5 22 -39 39 -76 l30 -68 -54 0 c-30 0 -55
-4 -55 -9 0 -5 -3 -16 -6 -25 -5 -14 5 -16 69 -16 l76 0 12 -35 c11 -28 18
-35 40 -35 l28 0 -33 73 c-18 39 -54 114 -80 165 -42 83 -49 92 -74 92 -26 0
-32 -10 -97 -147z m186 -10 c38 -81 68 -151 66 -157 -2 -6 -14 8 -26 32 l-21
42 -68 2 -67 2 63 3 c34 2 62 7 62 10 0 15 -90 193 -97 193 -4 -1 -37 -64 -73
-141 -60 -129 -76 -157 -84 -148 -2 2 29 73 70 157 49 102 78 152 89 152 10 0
38 -48 86 -147z"/>
<path d="M3230 1935 l0 -165 140 0 140 0 0 25 0 25 -115 0 -115 0 0 45 0 45
100 0 100 0 0 25 0 25 -100 0 -100 0 0 51 c0 45 2 50 17 44 10 -3 62 -3 115 1
87 6 98 9 98 25 0 18 -10 19 -140 19 l-140 0 0 -165z m270 145 c0 -6 -45 -10
-115 -10 l-115 0 0 -65 0 -65 103 -2 102 -2 -102 -3 -103 -4 0 -64 0 -65 115
0 c70 0 115 -4 115 -10 0 -6 -48 -10 -125 -10 l-125 0 0 155 0 155 125 0 c77
0 125 -4 125 -10z"/>
<path d="M1050 2070 c-9 -6 -10 -10 -3 -10 6 0 15 5 18 10 8 12 4 12 -15 0z"/>
<path d="M2933 2061 c-51 -24 -73 -63 -73 -129 0 -92 75 -155 166 -138 35 7
104 59 93 71 -4 3 -20 -8 -37 -25 -55 -55 -162 -36 -196 34 -43 90 13 186 109
186 41 0 90 -22 98 -45 4 -8 11 -15 17 -15 8 0 8 6 0 20 -28 52 -111 71 -177
41z"/>
</g>
</svg>
